<svg width="161" height="23" viewBox="0 0 161 23" fill="none" xmlns="http://www.w3.org/2000/svg">
  <path
    d="M7.09446 15.8372C11.212 15.8372 13.5603 14.0024 13.5603 10.8157C13.5603 8.62678 12.5309 7.3392 10.0861 6.34133L7.60915 5.37564C6.61194 4.95718 6.3546 4.76404 6.3546 4.34558C6.3546 3.89493 6.77278 3.70179 7.64132 3.70179C8.83154 3.70179 10.4721 4.08806 11.8875 4.73185L13.2707 0.965684C11.3085 0.321895 9.57141 0 7.89867 0C3.97416 0 1.69022 1.73823 1.69022 4.76404C1.69022 6.88855 2.84827 8.43364 5.19654 9.36714L7.8665 10.4616C8.6707 10.8157 8.86371 10.9444 8.86371 11.3307C8.86371 11.8457 8.44552 12.0389 7.41614 12.0389C5.71123 12.0389 3.94199 11.5238 2.30141 10.4616L0.5 14.2921C2.43009 15.29 4.74619 15.8372 7.09446 15.8372Z"
    fill="url(#paint0_linear_9832_21030)" />
  <path
    d="M17.8301 2.28786e-05C16.4551 2.28786e-05 15.1907 1.15383 15.1907 2.64122C15.1907 4.12862 16.4551 5.28243 17.8301 5.28243C19.3386 5.28243 20.4694 4.12862 20.4694 2.64122C20.4694 1.15383 19.205 2.28786e-05 17.8301 2.28786e-05ZM15.3853 6.62853V15.3544H20.2427V6.62853H15.3853Z"
    fill="url(#paint1_linear_9832_21030)" />
  <path
    d="M29.2467 0C25.2579 0 22.3949 3.058 22.3949 7.9508C22.3949 12.6505 25.1614 15.5475 29.2146 15.5475C31.6915 15.5475 33.4286 14.4209 34.7153 11.9745L34.844 12.0067C34.651 12.9724 34.5545 13.5518 34.5545 14.1956V14.4853C34.5545 16.8029 32.9461 17.833 30.4048 17.833C28.346 17.833 26.8341 17.2857 25.2257 16.4488L23.167 20.4081C25.0649 21.5026 27.4453 22.3073 30.7586 22.3073C35.7447 22.3073 39.2832 20.1184 39.2832 14.0668V0.482842H34.4258C34.4258 1.99575 34.5866 2.89705 34.844 3.83055L34.7153 3.86274C33.7503 1.64166 32.0775 0 29.2467 0ZM30.823 4.44215C32.7852 4.44215 34.3293 5.7941 34.3293 7.91861C34.3293 10.0431 32.7852 11.3951 30.823 11.3951C28.8929 11.3951 27.381 10.0753 27.381 7.91861C27.381 5.76191 28.8929 4.44215 30.823 4.44215Z"
    fill="url(#paint2_linear_9832_21030)" />
  <path
    d="M47.0867 15.3544V8.14394C47.0867 5.1825 48.3413 4.2812 49.8853 4.2812C51.3329 4.2812 52.3301 5.02156 52.3301 7.40358V15.3544H56.9945V8.14394C56.9945 5.1825 58.2169 4.2812 59.7609 4.2812C61.2085 4.2812 62.2057 5.02156 62.2057 7.46796V15.3544H67.0631V5.92286C67.0631 1.8348 64.9722 0 61.8519 0C59.0211 0 57.477 1.67385 56.6728 3.6696H56.5441C55.9329 1.35196 54.614 0 51.8798 0C49.3063 0 47.8587 1.19101 46.765 3.60522L46.6364 3.54084C46.8937 2.41421 46.9902 1.67385 46.9902 0.482842H42.2293V15.3544H47.0867Z"
    fill="url(#paint3_linear_9832_21030)" />
  <path
    d="M76.5894 0C74.8523 0 72.6971 0.193136 70.767 0.547221L71.4425 4.40996C73.5978 4.02368 74.6593 3.92712 75.9782 3.92712C77.8761 3.92712 79.0663 4.66747 79.0663 5.85848C79.0663 7.0173 79.1307 7.66109 79.3237 8.2405L79.195 8.30488C78.1335 6.47008 76.3964 5.53659 74.1125 5.53659C70.8635 5.53659 68.7404 7.53234 68.7404 10.6225C68.7404 13.7771 70.8635 15.8372 74.0481 15.8372C76.4286 15.8372 78.23 14.6462 79.2594 12.2964L79.4202 12.3929C79.0663 13.2943 78.9055 14.2277 78.9055 15.3544H83.7629V5.92286C83.7629 1.70604 81.7041 0 76.5894 0ZM76.0104 8.40145C77.2327 8.40145 78.1013 9.20619 78.1013 10.3006C78.1013 11.3951 77.2327 12.1998 76.0104 12.1998C74.788 12.1998 73.9516 11.4273 73.9516 10.3006C73.9516 9.20619 74.788 8.40145 76.0104 8.40145Z"
    fill="url(#paint4_linear_9832_21030)" />
  <path
    d="M86.6873 0.430231V15.3544L90.8366 15.3544V10.2785C90.8366 8.24767 90.4869 7.35933 90.4869 7.35933L90.6289 7.28826L92.8687 12.9789H97.2474L99.5065 7.29537L99.6343 7.35933C99.6343 7.35933 99.2989 8.24767 99.2989 10.2607V15.3544L103.732 15.3544V0.430231H97.4638L95.5592 5.55057C95.4079 5.95729 95.3043 6.38019 95.2504 6.8108L95.2218 7.03952H95.1132L95.0849 6.81459C95.0303 6.38148 94.9254 5.95622 94.7723 5.54744L92.8561 0.430231H86.6873Z"
    fill="url(#paint5_linear_9832_21030)" />
  <path fill-rule="evenodd" clip-rule="evenodd"
    d="M115.339 0.994932C114.303 0.618465 113.091 0.430231 111.704 0.430231H105.863V15.3544H111.704C113.091 15.3544 114.303 15.1528 115.339 14.7494C116.39 14.3326 117.266 13.7813 117.966 13.0956C118.666 12.3965 119.192 11.6167 119.542 10.7562C119.892 9.88223 120.067 8.99485 120.067 8.09401V7.65032C120.067 6.66882 119.892 5.7411 119.542 4.86716C119.192 3.99322 118.666 3.22684 117.966 2.56802C117.266 1.89576 116.39 1.3714 115.339 0.994932ZM110.41 10.9883V4.43232H112.091C112.618 4.43232 113.088 4.50479 113.503 4.64974C113.929 4.78354 114.287 4.98981 114.579 5.26855C114.87 5.53614 115.094 5.87621 115.251 6.28874C115.408 6.69013 115.487 7.15842 115.487 7.69361C115.487 8.20649 115.408 8.66921 115.251 9.08175C115.094 9.48314 114.87 9.82878 114.579 10.1187C114.287 10.3974 113.929 10.6148 113.503 10.7709C113.088 10.9159 112.618 10.9883 112.091 10.9883H110.41Z"
    fill="url(#paint6_linear_9832_21030)" />
  <path fill-rule="evenodd" clip-rule="evenodd"
    d="M153.582 15.2999L153.514 14.606C153.289 14.6279 153.061 14.6392 152.83 14.6392H152.155V15.3363H152.83C153.084 15.3363 153.334 15.3239 153.582 15.2999ZM131.895 15.3363V14.6392H131.22C130.989 14.6392 130.76 14.6279 130.535 14.6061L130.468 15.2999C130.715 15.3239 130.966 15.3363 131.22 15.3363H131.895ZM128.993 15.008L129.195 14.3408C128.755 14.2074 128.333 14.0314 127.933 13.8177L127.604 14.4322C128.043 14.6674 128.508 14.861 128.993 15.008ZM126.355 13.5959L126.798 13.0573C126.445 12.7673 126.121 12.4433 125.831 12.0903L125.292 12.5328C125.611 12.9209 125.967 13.2771 126.355 13.5959ZM124.456 11.2835L125.07 10.9544C124.856 10.5553 124.68 10.1332 124.547 9.6927L123.88 9.89483C124.027 10.3798 124.22 10.8444 124.456 11.2835ZM123.588 8.42003L124.282 8.35251C124.26 8.12754 124.249 7.89925 124.249 7.66814C124.249 7.43702 124.26 7.20873 124.282 6.98376L123.588 6.91624C123.564 7.16361 123.552 7.41444 123.552 7.66814C123.552 7.92183 123.564 8.17266 123.588 8.42003ZM123.88 5.44144L124.547 5.64357C124.68 5.20308 124.856 4.78095 125.07 4.3819L124.456 4.05276C124.22 4.49184 124.027 4.95648 123.88 5.44144ZM125.292 2.80345L125.831 3.24599C126.121 2.89301 126.445 2.56899 126.798 2.27898L126.355 1.74036C125.967 2.0592 125.611 2.41539 125.292 2.80345ZM127.604 0.904081L127.933 1.51859C128.333 1.30485 128.755 1.12891 129.195 0.995453L128.993 0.328298C128.508 0.475226 128.043 0.668902 127.604 0.904081ZM152.155 0H152.83C153.084 0 153.334 0.0123204 153.582 0.0363954L153.514 0.730221C153.289 0.708326 153.061 0.697103 152.83 0.697103H152.155V0ZM155.057 0.328298L154.854 0.995453C155.295 1.12891 155.717 1.30485 156.116 1.51859L156.445 0.904081C156.006 0.668902 155.542 0.475226 155.057 0.328298ZM157.695 1.74036L157.252 2.27898C157.605 2.56899 157.929 2.89301 158.219 3.24599L158.758 2.80345C158.439 2.41539 158.083 2.05919 157.695 1.74036ZM159.594 4.05276L158.979 4.3819C159.193 4.78095 159.369 5.20308 159.503 5.64357L160.17 5.44144C160.023 4.95648 159.829 4.49184 159.594 4.05276ZM160.462 6.91624L159.768 6.98376C159.79 7.20873 159.801 7.43702 159.801 7.66814C159.801 7.89925 159.79 8.12754 159.768 8.35251L160.462 8.42003C160.486 8.17266 160.498 7.92183 160.498 7.66814C160.498 7.41444 160.486 7.16361 160.462 6.91624ZM160.17 9.89483L159.503 9.6927C159.369 10.1332 159.193 10.5553 158.979 10.9544L159.594 11.2835C159.829 10.8444 160.023 10.3798 160.17 9.89483ZM158.758 12.5328L158.219 12.0903C157.929 12.4433 157.605 12.7673 157.252 13.0573L157.695 13.5959C158.083 13.2771 158.439 12.9209 158.758 12.5328ZM155.057 15.008L154.854 14.3408C155.295 14.2074 155.717 14.0314 156.116 13.8177L156.445 14.4322C156.006 14.6674 155.542 14.861 155.057 15.008ZM150.804 0V0.697103H149.453V0H150.804ZM148.103 0V0.697103H146.752V0H148.103ZM145.401 0V0.697103H144.051V0H145.401ZM142.7 0V0.697103H141.349V0H142.7ZM139.999 0V0.697103H138.648V0H139.999ZM137.298 0V0.697103H135.947V0H137.298ZM134.596 0V0.697103H133.246V0H134.596ZM131.895 0V0.697103H131.22C130.989 0.697103 130.76 0.708326 130.535 0.730221L130.468 0.0363955C130.715 0.0123204 130.966 0 131.22 0H131.895ZM133.246 15.3363V14.6392H134.596V15.3363H133.246ZM135.947 15.3363V14.6392H137.298V15.3363H135.947ZM138.648 15.3363V14.6392H139.999V15.3363H138.648ZM141.349 15.3363V14.6392H142.7V15.3363H141.349ZM144.051 15.3363V14.6392H145.401V15.3363H144.051ZM146.752 15.3363V14.6392H148.103V15.3363H146.752ZM149.453 15.3363V14.6392H150.804V15.3363H149.453Z"
    fill="#91006D" />
  <path
    d="M134.784 11.1539C134.485 11.1539 134.212 11.0873 133.965 10.9541C133.725 10.8138 133.523 10.6245 133.361 10.386C133.205 10.1406 133.097 9.86713 133.039 9.56559L133.175 9.37625L133.097 11.0487H131.918V3.48578H133.253V7.27251L133.127 7.05162C133.231 6.65892 133.429 6.33284 133.721 6.07338C134.014 5.81392 134.381 5.68419 134.823 5.68419C135.206 5.68419 135.554 5.79288 135.866 6.01027C136.178 6.22765 136.421 6.53971 136.597 6.94643C136.779 7.35316 136.87 7.84754 136.87 8.42957C136.87 8.99758 136.779 9.48495 136.597 9.89167C136.421 10.2984 136.174 10.6104 135.856 10.8278C135.544 11.0452 135.187 11.1539 134.784 11.1539ZM134.384 10.0495C134.742 10.0495 135.021 9.91271 135.222 9.63922C135.43 9.35872 135.534 8.952 135.534 8.41905C135.534 7.8861 135.434 7.48289 135.232 7.2094C135.031 6.9289 134.751 6.78865 134.394 6.78865C134.16 6.78865 133.958 6.85527 133.789 6.98851C133.621 7.12174 133.487 7.31108 133.39 7.55652C133.299 7.80195 133.253 8.09297 133.253 8.42957C133.253 8.77318 133.299 9.0677 133.39 9.31314C133.487 9.55157 133.621 9.73389 133.789 9.86011C133.965 9.98634 134.163 10.0495 134.384 10.0495Z"
    fill="#91006D" />
  <path
    d="M140.138 11.1539C139.625 11.1539 139.177 11.0452 138.793 10.8278C138.416 10.6104 138.124 10.2984 137.916 9.89167C137.708 9.48495 137.604 8.99407 137.604 8.41905C137.604 7.84403 137.708 7.35316 137.916 6.94643C138.124 6.53971 138.413 6.22765 138.783 6.01027C139.16 5.79288 139.589 5.68419 140.07 5.68419C140.564 5.68419 140.983 5.79288 141.328 6.01027C141.672 6.22064 141.935 6.51166 142.117 6.88332C142.299 7.24797 142.39 7.66521 142.39 8.13505C142.39 8.2753 142.387 8.40853 142.38 8.53476C142.374 8.66098 142.364 8.77318 142.351 8.87136H138.462V7.87208H141.766L141.123 8.12453C141.123 7.68274 141.029 7.34264 140.84 7.10421C140.658 6.86579 140.398 6.74658 140.06 6.74658C139.813 6.74658 139.599 6.80969 139.417 6.93591C139.242 7.06214 139.108 7.25147 139.017 7.50392C138.926 7.74936 138.881 8.06142 138.881 8.44009C138.881 8.81175 138.93 9.1203 139.027 9.36574C139.131 9.60416 139.274 9.78298 139.456 9.90219C139.644 10.0214 139.869 10.081 140.129 10.081C140.415 10.081 140.645 10.0214 140.821 9.90219C140.996 9.78298 141.133 9.61818 141.23 9.40781L142.293 9.8496C142.189 10.1231 142.029 10.358 141.815 10.5543C141.607 10.7507 141.357 10.9015 141.064 11.0067C140.778 11.1048 140.47 11.1539 140.138 11.1539Z"
    fill="#91006D" />
  <path
    d="M145.009 4.18001V9.33418C145.009 9.58663 145.068 9.77246 145.185 9.89167C145.308 10.0039 145.474 10.06 145.682 10.06C145.844 10.06 145.987 10.0354 146.111 9.98634C146.234 9.93024 146.344 9.85661 146.442 9.76545L146.656 10.7226C146.5 10.8559 146.305 10.9611 146.072 11.0382C145.838 11.1153 145.591 11.1539 145.331 11.1539C145.006 11.1539 144.717 11.1013 144.463 10.9961C144.216 10.8909 144.021 10.7226 143.878 10.4912C143.742 10.2598 143.674 9.95128 143.674 9.56559V4.57972L145.009 4.18001ZM146.569 5.78938V6.86228H142.777V5.78938H146.569Z"
    fill="#91006D" />
  <path
    d="M150.145 7.69326C150.145 7.39172 150.064 7.15681 149.902 6.98851C149.746 6.82021 149.538 6.73606 149.278 6.73606C149.037 6.73606 148.826 6.80268 148.644 6.93591C148.462 7.06915 148.329 7.29004 148.245 7.59859L147.104 7.21992C147.215 6.7571 147.455 6.38544 147.826 6.10494C148.202 5.82444 148.706 5.68419 149.336 5.68419C149.765 5.68419 150.139 5.75782 150.457 5.90508C150.776 6.04533 151.023 6.25921 151.198 6.54672C151.38 6.83423 151.471 7.19537 151.471 7.63015V9.76545C151.471 10.0319 151.588 10.1652 151.822 10.1652C151.933 10.1652 152.036 10.1476 152.134 10.1126L152.056 11.0067C151.887 11.0978 151.676 11.1434 151.422 11.1434C151.195 11.1434 150.99 11.1013 150.808 11.0172C150.626 10.933 150.483 10.8068 150.379 10.6385C150.275 10.4632 150.223 10.2458 150.223 9.98634V9.94426L150.457 9.90219C150.418 10.1687 150.311 10.3966 150.136 10.5859C149.96 10.7682 149.746 10.9085 149.492 11.0067C149.245 11.1048 148.989 11.1539 148.722 11.1539C148.391 11.1539 148.105 11.1013 147.865 10.9961C147.624 10.8839 147.439 10.7226 147.309 10.5123C147.179 10.3019 147.114 10.0424 147.114 9.73389C147.114 9.34119 147.231 9.02212 147.465 8.77669C147.699 8.52424 148.033 8.35243 148.469 8.26127L150.301 7.86156L150.292 8.75565L149.122 9.0081C148.901 9.05719 148.732 9.1238 148.615 9.20795C148.505 9.28509 148.449 9.41482 148.449 9.59715C148.449 9.77246 148.508 9.90569 148.625 9.99686C148.748 10.088 148.895 10.1336 149.063 10.1336C149.2 10.1336 149.333 10.1161 149.463 10.081C149.593 10.0459 149.71 9.98984 149.814 9.91271C149.918 9.83557 149.999 9.73038 150.058 9.59715C150.116 9.46391 150.145 9.30262 150.145 9.11329V7.69326Z"
    fill="#91006D" />
  <defs>
    <linearGradient id="paint0_linear_9832_21030" x1="8.08448" y1="14.6113" x2="90.51" y2="-9.4806"
      gradientUnits="userSpaceOnUse">
      <stop stop-color="#B64798" />
      <stop offset="1" stop-color="#91006D" />
    </linearGradient>
    <linearGradient id="paint1_linear_9832_21030" x1="8.08448" y1="14.6113" x2="90.51" y2="-9.4806"
      gradientUnits="userSpaceOnUse">
      <stop stop-color="#B64798" />
      <stop offset="1" stop-color="#91006D" />
    </linearGradient>
    <linearGradient id="paint2_linear_9832_21030" x1="8.08448" y1="14.6113" x2="90.51" y2="-9.4806"
      gradientUnits="userSpaceOnUse">
      <stop stop-color="#B64798" />
      <stop offset="1" stop-color="#91006D" />
    </linearGradient>
    <linearGradient id="paint3_linear_9832_21030" x1="8.08448" y1="14.6113" x2="90.51" y2="-9.4806"
      gradientUnits="userSpaceOnUse">
      <stop stop-color="#B64798" />
      <stop offset="1" stop-color="#91006D" />
    </linearGradient>
    <linearGradient id="paint4_linear_9832_21030" x1="8.08448" y1="14.6113" x2="90.51" y2="-9.4806"
      gradientUnits="userSpaceOnUse">
      <stop stop-color="#B64798" />
      <stop offset="1" stop-color="#91006D" />
    </linearGradient>
    <linearGradient id="paint5_linear_9832_21030" x1="8.08448" y1="14.6113" x2="90.51" y2="-9.4806"
      gradientUnits="userSpaceOnUse">
      <stop stop-color="#B64798" />
      <stop offset="1" stop-color="#91006D" />
    </linearGradient>
    <linearGradient id="paint6_linear_9832_21030" x1="8.08448" y1="14.6113" x2="90.51" y2="-9.4806"
      gradientUnits="userSpaceOnUse">
      <stop stop-color="#B64798" />
      <stop offset="1" stop-color="#91006D" />
    </linearGradient>
  </defs>
</svg>